<svg xmlns="http://www.w3.org/2000/svg" viewBox="3400 41 36 36">
  <defs>
    <style>
      .cls-1 {
        fill: #fff;
      }

      .cls-2 {
        fill: none;
      }
    </style>
  </defs>
  <g id="icon--instagram" transform="translate(1779 -20)">
    <path id="instagram-glyph-1" class="cls-1" d="M8,12a4,4,0,1,1,4,4,4,4,0,0,1-4-4M5.838,12A6.162,6.162,0,1,0,12,5.838,6.162,6.162,0,0,0,5.838,12M16.966,5.594a1.44,1.44,0,1,0,1.44-1.439,1.441,1.441,0,0,0-1.44,1.439M7.152,21.768a6.629,6.629,0,0,1-2.228-.413,3.732,3.732,0,0,1-1.38-.9,3.709,3.709,0,0,1-.9-1.379,6.629,6.629,0,0,1-.413-2.228c-.058-1.265-.07-1.645-.07-4.849s.013-3.584.07-4.849a6.66,6.66,0,0,1,.413-2.228,3.732,3.732,0,0,1,.9-1.38,3.7,3.7,0,0,1,1.38-.9,6.629,6.629,0,0,1,2.228-.413C8.416,2.173,8.8,2.162,12,2.162s3.584.013,4.849.07a6.66,6.66,0,0,1,2.228.413,3.72,3.72,0,0,1,1.38.9,3.725,3.725,0,0,1,.9,1.38,6.629,6.629,0,0,1,.413,2.228c.058,1.266.07,1.645.07,4.849s-.012,3.584-.07,4.849a6.654,6.654,0,0,1-.413,2.228,3.973,3.973,0,0,1-2.278,2.277,6.629,6.629,0,0,1-2.228.413c-1.265.058-1.645.07-4.849.07s-3.584-.012-4.848-.07M7.053.073A8.8,8.8,0,0,0,4.14.63,5.888,5.888,0,0,0,2.014,2.014,5.872,5.872,0,0,0,.63,4.14,8.8,8.8,0,0,0,.073,7.053C.014,8.332,0,8.741,0,12s.014,3.668.073,4.947A8.8,8.8,0,0,0,.63,19.86a5.868,5.868,0,0,0,1.384,2.126A5.885,5.885,0,0,0,4.14,23.37a8.807,8.807,0,0,0,2.913.557C8.333,23.985,8.741,24,12,24s3.668-.014,4.947-.073a8.8,8.8,0,0,0,2.913-.557,6.136,6.136,0,0,0,3.51-3.51,8.777,8.777,0,0,0,.557-2.913C23.985,15.667,24,15.259,24,12s-.014-3.668-.072-4.947A8.8,8.8,0,0,0,23.37,4.14a5.9,5.9,0,0,0-1.384-2.126A5.885,5.885,0,0,0,19.861.63,8.788,8.788,0,0,0,16.948.073C15.669.015,15.26,0,12,0S8.333.014,7.053.073" transform="translate(1627 67)"/>
    <rect id="Rectangle_842" data-name="Rectangle 842" class="cls-2" width="36" height="36" transform="translate(1621 61)"/>
  </g>
</svg>
