<svg xmlns="http://www.w3.org/2000/svg" viewBox="1841.558 31 56 56">
  <defs>
    <style>
      .cls-1 {
        fill: #fff;
      }

      .cls-2, .cls-4 {
        fill: none;
      }

      .cls-2 {
        stroke: #fff;
        stroke-width: 2px;
      }

      .cls-3 {
        stroke: none;
      }
    </style>
  </defs>
  <g id="logo--white" transform="translate(1779 -19.558)">
    <g id="Group_16" data-name="Group 16" transform="translate(77.812 65.224)">
      <g id="Group_15" data-name="Group 15" transform="translate(0 0)">
        <g id="Group_14" data-name="Group 14" transform="translate(0 0)">
          <path id="Path_7" data-name="Path 7" class="cls-1" d="M129.113,99.487v-.421a2.868,2.868,0,0,0-2.865-2.865H114.6a7.059,7.059,0,0,0-7.058,7.058v.443a7.009,7.009,0,0,0,2.929,5.71A7.029,7.029,0,0,0,106,115.963v.443a7.068,7.068,0,0,0,7.037,7.058,9.315,9.315,0,0,0,9.313-9.312V111.1h6.279v-.421a2.774,2.774,0,0,0-2.76-2.781H122.35V99.508h6.763Zm-14.327,0h4.4v8.385h-4.4a3.8,3.8,0,0,1-3.792-3.792v-.8A3.777,3.777,0,0,1,114.786,99.487Zm4.4,15.886a5.449,5.449,0,0,1-5.436,5.436,4.233,4.233,0,0,1-4.3-4.13v-1.412a4.426,4.426,0,0,1,4.3-4.151h5.436Z" transform="translate(-106 -96.2)"/>
        </g>
      </g>
    </g>
    <g id="Ellipse_1" data-name="Ellipse 1" class="cls-2" transform="translate(62.558 50.558)">
      <circle class="cls-3" cx="28" cy="28" r="28"/>
      <circle class="cls-4" cx="28" cy="28" r="27"/>
    </g>
  </g>
</svg>
